<mxfile host="app.diagrams.net" modified="2023-07-19T06:04:01.927Z" agent="Mozilla/5.0 (X11; Ubuntu; Linux x86_64; rv:109.0) Gecko/20100101 Firefox/115.0" etag="y6nHqR5bL3f6XRyjwoh3" version="21.6.2" type="github">
  <diagram name="Страница 1" id="WFiS3W0_bjR4yDzAsUtz">
    <mxGraphModel dx="2187" dy="795" grid="1" gridSize="10" guides="1" tooltips="1" connect="1" arrows="1" fold="1" page="1" pageScale="1" pageWidth="827" pageHeight="1169" math="0" shadow="0">
      <root>
        <mxCell id="0" />
        <mxCell id="1" parent="0" />
        <mxCell id="96RnpMc_iwZ5XMW62S4j-1" value="" style="rounded=0;whiteSpace=wrap;html=1;rotation=25;" parent="1" vertex="1">
          <mxGeometry x="-190" y="70" width="110" height="70" as="geometry" />
        </mxCell>
      </root>
    </mxGraphModel>
  </diagram>
</mxfile>
